<?xml version="1.0" encoding="UTF-8" standalone="no"?>
<!DOCTYPE svg PUBLIC "-//W3C//DTD SVG 1.1//EN"
 "http://www.w3.org/Graphics/SVG/1.1/DTD/svg11.dtd">
<!-- Generated by graphviz version 2.38.0 (20140413.2041)
 -->
<!-- Title: Compiler.Scanner Pages: 1 -->
<svg width="247pt" height="152pt"
 viewBox="0.00 0.00 246.50 152.00" xmlns="http://www.w3.org/2000/svg" xmlns:xlink="http://www.w3.org/1999/xlink">
<g id="graph0" class="graph" transform="scale(1 1) rotate(0) translate(4 148)">
<title>Compiler.Scanner</title>
<polygon fill="white" stroke="none" points="-4,4 -4,-148 242.5,-148 242.5,4 -4,4"/>
<!-- Node2 -->
<g id="node1" class="node"><title>Node2</title>
<polygon fill="#bfbfbf" stroke="black" points="50.5,-0.5 50.5,-19.5 144.5,-19.5 144.5,-0.5 50.5,-0.5"/>
<text text-anchor="middle" x="97.5" y="-7.5" font-family="Helvetica,sans-Serif" font-size="10.00">Compiler.Scanner</text>
</g>
<!-- Node3 -->
<g id="node2" class="node"><title>Node3</title>
<polygon fill="white" stroke="#bfbfbf" points="0,-67.5 0,-86.5 115,-86.5 115,-67.5 0,-67.5"/>
<text text-anchor="middle" x="57.5" y="-74.5" font-family="Helvetica,sans-Serif" font-size="10.00">IEnumerable&lt; Token &gt;</text>
</g>
<!-- Node3&#45;&gt;Node2 -->
<g id="edge1" class="edge"><title>Node3&#45;&gt;Node2</title>
<path fill="none" stroke="midnightblue" d="M68.2479,-58.5347C75.9924,-45.9499 86.1109,-29.5072 92.1909,-19.6273"/>
<polygon fill="midnightblue" stroke="midnightblue" points="65.1548,-56.8829 62.8946,-67.2338 71.1164,-60.5516 65.1548,-56.8829"/>
</g>
<!-- Node4 -->
<g id="node3" class="node"><title>Node4</title>
<g id="a_node3"><a xlink:href="../../de/d2a/class_compiler_1_1_source_file.html" target="_top" xlink:title="Compiler.SourceFile">
<polygon fill="white" stroke="black" points="133.5,-67.5 133.5,-86.5 237.5,-86.5 237.5,-67.5 133.5,-67.5"/>
<text text-anchor="middle" x="185.5" y="-74.5" font-family="Helvetica,sans-Serif" font-size="10.00">Compiler.SourceFile</text>
</a>
</g>
</g>
<!-- Node4&#45;&gt;Node2 -->
<g id="edge2" class="edge"><title>Node4&#45;&gt;Node2</title>
<path fill="none" stroke="#9a32cd" stroke-dasharray="5,2" d="M165.284,-61.0678C147.914,-48.2376 123.474,-30.1853 109.18,-19.6273"/>
<polygon fill="#9a32cd" stroke="#9a32cd" points="163.509,-64.1077 173.632,-67.2338 167.668,-58.4771 163.509,-64.1077"/>
<text text-anchor="middle" x="163" y="-41" font-family="Helvetica,sans-Serif" font-size="10.00"> source</text>
</g>
<!-- Node5 -->
<g id="node4" class="node"><title>Node5</title>
<polygon fill="white" stroke="#bfbfbf" points="132.5,-124.5 132.5,-143.5 238.5,-143.5 238.5,-124.5 132.5,-124.5"/>
<text text-anchor="middle" x="185.5" y="-131.5" font-family="Helvetica,sans-Serif" font-size="10.00">IEnumerator&lt; char &gt;</text>
</g>
<!-- Node5&#45;&gt;Node4 -->
<g id="edge3" class="edge"><title>Node5&#45;&gt;Node4</title>
<path fill="none" stroke="midnightblue" d="M185.5,-114.117C185.5,-104.817 185.5,-94.0557 185.5,-86.7149"/>
<polygon fill="midnightblue" stroke="midnightblue" points="182,-114.406 185.5,-124.406 189,-114.406 182,-114.406"/>
</g>
</g>
</svg>
