<?xml version="1.0" encoding="UTF-8" standalone="no"?>
<!DOCTYPE svg PUBLIC "-//W3C//DTD SVG 1.1//EN"
 "http://www.w3.org/Graphics/SVG/1.1/DTD/svg11.dtd">
<!-- Generated by graphviz version 2.38.0 (20140413.2041)
 -->
<!-- Title: Compiler.SourcePosition Pages: 1 -->
<svg width="132pt" height="106pt"
 viewBox="0.00 0.00 132.00 106.00" xmlns="http://www.w3.org/2000/svg" xmlns:xlink="http://www.w3.org/1999/xlink">
<g id="graph0" class="graph" transform="scale(1 1) rotate(0) translate(4 102)">
<title>Compiler.SourcePosition</title>
<polygon fill="white" stroke="none" points="-4,4 -4,-102 128,-102 128,4 -4,4"/>
<!-- Node1 -->
<g id="node1" class="node"><title>Node1</title>
<polygon fill="#bfbfbf" stroke="black" points="0,-0.5 0,-19.5 124,-19.5 124,-0.5 0,-0.5"/>
<text text-anchor="middle" x="62" y="-7.5" font-family="Helvetica,sans-Serif" font-size="10.00">Compiler.SourcePosition</text>
</g>
<!-- Node2 -->
<g id="node2" class="node"><title>Node2</title>
<g id="a_node2"><a xlink:href="../../df/d5a/class_compiler_1_1_location.html" target="_top" xlink:title="Compiler.Location">
<polygon fill="white" stroke="black" points="14.5,-78.5 14.5,-97.5 109.5,-97.5 109.5,-78.5 14.5,-78.5"/>
<text text-anchor="middle" x="62" y="-85.5" font-family="Helvetica,sans-Serif" font-size="10.00">Compiler.Location</text>
</a>
</g>
</g>
<!-- Node2&#45;&gt;Node1 -->
<g id="edge1" class="edge"><title>Node2&#45;&gt;Node1</title>
<path fill="none" stroke="#9a32cd" stroke-dasharray="5,2" d="M62,-68.2239C62,-52.6974 62,-31.3582 62,-19.6165"/>
<polygon fill="#9a32cd" stroke="#9a32cd" points="58.5001,-68.2818 62,-78.2818 65.5001,-68.2819 58.5001,-68.2818"/>
<text text-anchor="middle" x="73" y="-52" font-family="Helvetica,sans-Serif" font-size="10.00"> End</text>
<text text-anchor="middle" x="73" y="-41" font-family="Helvetica,sans-Serif" font-size="10.00">Start</text>
</g>
</g>
</svg>
