<?xml version="1.0" encoding="UTF-8" standalone="no"?>
<!DOCTYPE svg PUBLIC "-//W3C//DTD SVG 1.1//EN"
 "http://www.w3.org/Graphics/SVG/1.1/DTD/svg11.dtd">
<!-- Generated by graphviz version 2.38.0 (20140413.2041)
 -->
<!-- Title: Compiler.Parser Pages: 1 -->
<svg width="247pt" height="219pt"
 viewBox="0.00 0.00 246.50 219.00" xmlns="http://www.w3.org/2000/svg" xmlns:xlink="http://www.w3.org/1999/xlink">
<g id="graph0" class="graph" transform="scale(1 1) rotate(0) translate(4 215)">
<title>Compiler.Parser</title>
<polygon fill="white" stroke="none" points="-4,4 -4,-215 242.5,-215 242.5,4 -4,4"/>
<!-- Node1 -->
<g id="node1" class="node"><title>Node1</title>
<polygon fill="#bfbfbf" stroke="black" points="54.5,-0.5 54.5,-19.5 140.5,-19.5 140.5,-0.5 54.5,-0.5"/>
<text text-anchor="middle" x="97.5" y="-7.5" font-family="Helvetica,sans-Serif" font-size="10.00">Compiler.Parser</text>
</g>
<!-- Node2 -->
<g id="node2" class="node"><title>Node2</title>
<g id="a_node2"><a xlink:href="$da/d27/class_compiler_1_1_scanner.html" xlink:title="Compiler.Scanner">
<polygon fill="white" stroke="black" points="50.5,-67.5 50.5,-86.5 144.5,-86.5 144.5,-67.5 50.5,-67.5"/>
<text text-anchor="middle" x="97.5" y="-74.5" font-family="Helvetica,sans-Serif" font-size="10.00">Compiler.Scanner</text>
</a>
</g>
</g>
<!-- Node2&#45;&gt;Node1 -->
<g id="edge1" class="edge"><title>Node2&#45;&gt;Node1</title>
<path fill="none" stroke="#9a32cd" stroke-dasharray="5,2" d="M97.5,-57.037C97.5,-44.6703 97.5,-29.1198 97.5,-19.6273"/>
<polygon fill="#9a32cd" stroke="#9a32cd" points="94.0001,-57.2338 97.5,-67.2338 101,-57.2338 94.0001,-57.2338"/>
<text text-anchor="middle" x="116.5" y="-41" font-family="Helvetica,sans-Serif" font-size="10.00"> scanner</text>
</g>
<!-- Node3 -->
<g id="node3" class="node"><title>Node3</title>
<polygon fill="white" stroke="#bfbfbf" points="0,-134.5 0,-153.5 115,-153.5 115,-134.5 0,-134.5"/>
<text text-anchor="middle" x="57.5" y="-141.5" font-family="Helvetica,sans-Serif" font-size="10.00">IEnumerable&lt; Token &gt;</text>
</g>
<!-- Node3&#45;&gt;Node2 -->
<g id="edge2" class="edge"><title>Node3&#45;&gt;Node2</title>
<path fill="none" stroke="midnightblue" d="M68.2479,-125.535C75.9924,-112.95 86.1109,-96.5072 92.1909,-86.6273"/>
<polygon fill="midnightblue" stroke="midnightblue" points="65.1548,-123.883 62.8946,-134.234 71.1164,-127.552 65.1548,-123.883"/>
</g>
<!-- Node4 -->
<g id="node4" class="node"><title>Node4</title>
<g id="a_node4"><a xlink:href="$de/d2a/class_compiler_1_1_source_file.html" xlink:title="Compiler.SourceFile">
<polygon fill="white" stroke="black" points="133.5,-134.5 133.5,-153.5 237.5,-153.5 237.5,-134.5 133.5,-134.5"/>
<text text-anchor="middle" x="185.5" y="-141.5" font-family="Helvetica,sans-Serif" font-size="10.00">Compiler.SourceFile</text>
</a>
</g>
</g>
<!-- Node4&#45;&gt;Node2 -->
<g id="edge3" class="edge"><title>Node4&#45;&gt;Node2</title>
<path fill="none" stroke="#9a32cd" stroke-dasharray="5,2" d="M165.284,-128.068C147.914,-115.238 123.474,-97.1853 109.18,-86.6273"/>
<polygon fill="#9a32cd" stroke="#9a32cd" points="163.509,-131.108 173.632,-134.234 167.668,-125.477 163.509,-131.108"/>
<text text-anchor="middle" x="163" y="-108" font-family="Helvetica,sans-Serif" font-size="10.00"> source</text>
</g>
<!-- Node5 -->
<g id="node5" class="node"><title>Node5</title>
<polygon fill="white" stroke="#bfbfbf" points="132.5,-191.5 132.5,-210.5 238.5,-210.5 238.5,-191.5 132.5,-191.5"/>
<text text-anchor="middle" x="185.5" y="-198.5" font-family="Helvetica,sans-Serif" font-size="10.00">IEnumerator&lt; char &gt;</text>
</g>
<!-- Node5&#45;&gt;Node4 -->
<g id="edge4" class="edge"><title>Node5&#45;&gt;Node4</title>
<path fill="none" stroke="midnightblue" d="M185.5,-181.117C185.5,-171.817 185.5,-161.056 185.5,-153.715"/>
<polygon fill="midnightblue" stroke="midnightblue" points="182,-181.406 185.5,-191.406 189,-181.406 182,-181.406"/>
</g>
</g>
</svg>
