<?xml version="1.0" encoding="UTF-8" standalone="no"?>
<!DOCTYPE svg PUBLIC "-//W3C//DTD SVG 1.1//EN"
 "http://www.w3.org/Graphics/SVG/1.1/DTD/svg11.dtd">
<!-- Generated by graphviz version 2.38.0 (20140413.2041)
 -->
<!-- Title: Compiler.Compiler Pages: 1 -->
<svg width="247pt" height="286pt"
 viewBox="0.00 0.00 246.50 286.00" xmlns="http://www.w3.org/2000/svg" xmlns:xlink="http://www.w3.org/1999/xlink">
<g id="graph0" class="graph" transform="scale(1 1) rotate(0) translate(4 282)">
<title>Compiler.Compiler</title>
<polygon fill="white" stroke="none" points="-4,4 -4,-282 242.5,-282 242.5,4 -4,4"/>
<!-- Node1 -->
<g id="node1" class="node"><title>Node1</title>
<polygon fill="#bfbfbf" stroke="black" points="66.5,-0.5 66.5,-19.5 162.5,-19.5 162.5,-0.5 66.5,-0.5"/>
<text text-anchor="middle" x="114.5" y="-7.5" font-family="Helvetica,sans-Serif" font-size="10.00">Compiler.Compiler</text>
</g>
<!-- Node2 -->
<g id="node2" class="node"><title>Node2</title>
<g id="a_node2"><a xlink:href="../../de/d2a/class_compiler_1_1_source_file.html" target="_top" xlink:title="Compiler.SourceFile">
<polygon fill="white" stroke="black" points="133.5,-201.5 133.5,-220.5 237.5,-220.5 237.5,-201.5 133.5,-201.5"/>
<text text-anchor="middle" x="185.5" y="-208.5" font-family="Helvetica,sans-Serif" font-size="10.00">Compiler.SourceFile</text>
</a>
</g>
</g>
<!-- Node2&#45;&gt;Node1 -->
<g id="edge1" class="edge"><title>Node2&#45;&gt;Node1</title>
<path fill="none" stroke="#9a32cd" stroke-dasharray="5,2" d="M185.349,-191.061C184.606,-163.157 181.178,-109.69 166.5,-67 161.642,-52.8715 159.373,-49.2127 149.5,-38 143.313,-30.9733 135.074,-24.5119 128.144,-19.6728"/>
<polygon fill="#9a32cd" stroke="#9a32cd" points="181.855,-191.412 185.528,-201.349 188.854,-191.29 181.855,-191.412"/>
<text text-anchor="middle" x="194" y="-108" font-family="Helvetica,sans-Serif" font-size="10.00"> source</text>
</g>
<!-- Node5 -->
<g id="node5" class="node"><title>Node5</title>
<g id="a_node5"><a xlink:href="../../da/d27/class_compiler_1_1_scanner.html" target="_top" xlink:title="Compiler.Scanner">
<polygon fill="white" stroke="black" points="36.5,-134.5 36.5,-153.5 130.5,-153.5 130.5,-134.5 36.5,-134.5"/>
<text text-anchor="middle" x="83.5" y="-141.5" font-family="Helvetica,sans-Serif" font-size="10.00">Compiler.Scanner</text>
</a>
</g>
</g>
<!-- Node2&#45;&gt;Node5 -->
<g id="edge6" class="edge"><title>Node2&#45;&gt;Node5</title>
<path fill="none" stroke="#9a32cd" stroke-dasharray="5,2" d="M160.877,-196.367C153.597,-192.199 145.662,-187.52 138.5,-183 123.386,-173.46 106.552,-161.647 95.5379,-153.747"/>
<polygon fill="#9a32cd" stroke="#9a32cd" points="159.212,-199.446 169.639,-201.322 162.657,-193.353 159.212,-199.446"/>
<text text-anchor="middle" x="155" y="-175" font-family="Helvetica,sans-Serif" font-size="10.00"> source</text>
</g>
<!-- Node3 -->
<g id="node3" class="node"><title>Node3</title>
<polygon fill="white" stroke="#bfbfbf" points="132.5,-258.5 132.5,-277.5 238.5,-277.5 238.5,-258.5 132.5,-258.5"/>
<text text-anchor="middle" x="185.5" y="-265.5" font-family="Helvetica,sans-Serif" font-size="10.00">IEnumerator&lt; char &gt;</text>
</g>
<!-- Node3&#45;&gt;Node2 -->
<g id="edge2" class="edge"><title>Node3&#45;&gt;Node2</title>
<path fill="none" stroke="midnightblue" d="M185.5,-248.117C185.5,-238.817 185.5,-228.056 185.5,-220.715"/>
<polygon fill="midnightblue" stroke="midnightblue" points="182,-248.406 185.5,-258.406 189,-248.406 182,-248.406"/>
</g>
<!-- Node4 -->
<g id="node4" class="node"><title>Node4</title>
<g id="a_node4"><a xlink:href="../../df/dc2/class_compiler_1_1_parser.html" target="_top" xlink:title="Compiler.Parser">
<polygon fill="white" stroke="black" points="71.5,-67.5 71.5,-86.5 157.5,-86.5 157.5,-67.5 71.5,-67.5"/>
<text text-anchor="middle" x="114.5" y="-74.5" font-family="Helvetica,sans-Serif" font-size="10.00">Compiler.Parser</text>
</a>
</g>
</g>
<!-- Node4&#45;&gt;Node1 -->
<g id="edge3" class="edge"><title>Node4&#45;&gt;Node1</title>
<path fill="none" stroke="#9a32cd" stroke-dasharray="5,2" d="M114.5,-57.037C114.5,-44.6703 114.5,-29.1198 114.5,-19.6273"/>
<polygon fill="#9a32cd" stroke="#9a32cd" points="111,-57.2338 114.5,-67.2338 118,-57.2338 111,-57.2338"/>
<text text-anchor="middle" x="130" y="-41" font-family="Helvetica,sans-Serif" font-size="10.00"> parser</text>
</g>
<!-- Node5&#45;&gt;Node1 -->
<g id="edge7" class="edge"><title>Node5&#45;&gt;Node1</title>
<path fill="none" stroke="#9a32cd" stroke-dasharray="5,2" d="M59.3406,-128.799C37.7996,-114.198 11.5239,-90.357 24.5,-67 37.8164,-43.0305 66.1201,-27.9924 87.4539,-19.6089"/>
<polygon fill="#9a32cd" stroke="#9a32cd" points="57.5565,-131.813 67.8596,-134.282 61.3452,-125.926 57.5565,-131.813"/>
<text text-anchor="middle" x="43.5" y="-74.5" font-family="Helvetica,sans-Serif" font-size="10.00"> scanner</text>
</g>
<!-- Node5&#45;&gt;Node4 -->
<g id="edge4" class="edge"><title>Node5&#45;&gt;Node4</title>
<path fill="none" stroke="#9a32cd" stroke-dasharray="5,2" d="M92.0067,-125.163C97.9851,-112.628 105.72,-96.4104 110.385,-86.6273"/>
<polygon fill="#9a32cd" stroke="#9a32cd" points="88.8265,-123.701 87.6808,-134.234 95.1447,-126.714 88.8265,-123.701"/>
<text text-anchor="middle" x="120.5" y="-108" font-family="Helvetica,sans-Serif" font-size="10.00"> scanner</text>
</g>
<!-- Node6 -->
<g id="node6" class="node"><title>Node6</title>
<polygon fill="white" stroke="#bfbfbf" points="0,-201.5 0,-220.5 115,-220.5 115,-201.5 0,-201.5"/>
<text text-anchor="middle" x="57.5" y="-208.5" font-family="Helvetica,sans-Serif" font-size="10.00">IEnumerable&lt; Token &gt;</text>
</g>
<!-- Node6&#45;&gt;Node5 -->
<g id="edge5" class="edge"><title>Node6&#45;&gt;Node5</title>
<path fill="none" stroke="midnightblue" d="M64.784,-191.79C69.777,-179.308 76.1746,-163.314 80.0491,-153.627"/>
<polygon fill="midnightblue" stroke="midnightblue" points="61.4708,-190.649 61.0065,-201.234 67.9701,-193.249 61.4708,-190.649"/>
</g>
</g>
</svg>
